<?xml version="1.0" encoding="iso-8859-1"?>
<!-- Generator: Adobe Illustrator 19.2.1, SVG Export Plug-In . SVG Version: 6.00 Build 0)  -->
<svg version="1.1" id="Layer_8" xmlns="http://www.w3.org/2000/svg" xmlns:xlink="http://www.w3.org/1999/xlink" x="0px" y="0px"
	 viewBox="0 0 63 49.191" style="enable-background:new 0 0 63 49.191;" xml:space="preserve">
<path d="M41.499,49.191c-0.255,0-0.513-0.064-0.749-0.201l-40-23.098C0.286,25.625,0,25.13,0,24.594s0.286-1.031,0.75-1.299
	L40.748,0.202c0.716-0.415,1.635-0.17,2.049,0.549c0.414,0.718,0.169,1.635-0.549,2.049L4.5,24.594l37.75,21.799
	c0.718,0.414,0.963,1.331,0.549,2.049C42.521,48.923,42.017,49.191,41.499,49.191z"/>
<path d="M41.499,37.643c-0.255,0-0.513-0.064-0.749-0.201l-20-11.55C20.286,25.625,20,25.13,20,24.594s0.286-1.031,0.75-1.299
	l20-11.547c0.465-0.268,1.035-0.268,1.5,0c0.464,0.268,0.75,0.763,0.75,1.299l-0.002,10.049L61.5,23.096c0.828,0,1.5,0.672,1.5,1.5
	s-0.672,1.5-1.5,1.5l0,0l-20.002-0.001c-0.397,0-0.779-0.158-1.061-0.439s-0.439-0.663-0.439-1.061L40,15.645l-15.5,8.948
	l17.75,10.251c0.718,0.414,0.963,1.332,0.549,2.049C42.521,37.375,42.017,37.643,41.499,37.643z"/>
</svg>
