<?xml version="1.0" encoding="iso-8859-1"?>
<!-- Generator: Adobe Illustrator 19.2.1, SVG Export Plug-In . SVG Version: 6.00 Build 0)  -->
<svg version="1.1" id="Layer_8" xmlns="http://www.w3.org/2000/svg" xmlns:xlink="http://www.w3.org/1999/xlink" x="0px" y="0px"
	 viewBox="0 0 17.658 20.012" style="enable-background:new 0 0 17.658 20.012;" xml:space="preserve">
<g>
	<g>
		<path style="fill:#000102;" d="M0.656,20.012h17.002v-9.895H0.656V20.012z M4.113,9.375L4.08,9.424h2.787L6.9,9.375l1.759-2.608
			H5.872L4.113,9.375z M9.628,9.375L9.595,9.424h2.787l0.033-0.049l1.758-2.608h-2.787L9.628,9.375z M1.352,9.424l0.033-0.049
			l1.758-2.608H0.656v2.657H1.352z M16.902,6.767l-1.759,2.608l-0.033,0.049h2.547V6.767H16.902z M8.411,4.794L6.019,2.661
			L3.319,3.347L5.71,5.481L8.411,4.794z M13.756,3.434l-2.392-2.133L8.664,1.988l2.392,2.134L13.756,3.434z M17.133,2.575L16.477,0
			l-2.469,0.628L16.4,2.762L17.133,2.575z M3.066,6.154L0.674,4.02L0,4.192l0.656,2.575L3.066,6.154z"/>
	</g>
</g>
</svg>
