<?xml version="1.0" encoding="iso-8859-1"?>
<!-- Generator: Adobe Illustrator 19.2.1, SVG Export Plug-In . SVG Version: 6.00 Build 0)  -->
<svg version="1.1" id="Layer_8" xmlns="http://www.w3.org/2000/svg" xmlns:xlink="http://www.w3.org/1999/xlink" x="0px" y="0px"
	 viewBox="0 0 23.881 20.003" style="enable-background:new 0 0 23.881 20.003;" xml:space="preserve">
<path style="fill:#000102;" d="M14.411,3.433c1.104,0.689,1.878,1.855,2.02,3.209c0.45,0.21,0.95,0.33,1.48,0.33
	c1.935,0,3.502-1.561,3.502-3.486C21.413,1.56,19.846,0,17.911,0C15.994,0,14.44,1.533,14.411,3.433z M12.116,10.571
	c1.934,0,3.502-1.561,3.502-3.486c0-1.925-1.568-3.486-3.502-3.486c-1.934,0-3.503,1.561-3.503,3.486S10.182,10.571,12.116,10.571z
	 M13.602,10.808H10.63c-2.473,0-4.484,2.003-4.484,4.464v3.618l0.009,0.057l0.25,0.078c2.36,0.734,4.41,0.978,6.098,0.978
	c3.296,0,5.206-0.935,5.324-0.995l0.234-0.118h0.025v-3.618C18.086,12.811,16.075,10.808,13.602,10.808z M19.397,7.209h-2.949
	c-0.032,1.175-0.535,2.232-1.332,2.993c2.198,0.651,3.806,2.679,3.806,5.076v1.115c2.912-0.106,4.59-0.928,4.7-0.983l0.234-0.118
	h0.025v-3.618C23.881,9.212,21.869,7.209,19.397,7.209z M5.971,6.972c0.685,0,1.323-0.199,1.863-0.538
	c0.172-1.115,0.772-2.088,1.629-2.752c0.004-0.065,0.01-0.13,0.01-0.196c0-1.925-1.568-3.486-3.502-3.486
	c-1.935,0-3.502,1.561-3.502,3.486C2.468,5.411,4.036,6.972,5.971,6.972z M9.116,10.202C8.324,9.446,7.822,8.394,7.785,7.226
	C7.676,7.218,7.568,7.209,7.456,7.209H4.484C2.012,7.209,0,9.212,0,11.673v3.618l0.009,0.056l0.25,0.079
	c1.893,0.588,3.583,0.859,5.05,0.945v-1.092C5.31,12.882,6.918,10.853,9.116,10.202z"/>
</svg>
