<?xml version="1.0" encoding="iso-8859-1"?>
<!-- Generator: Adobe Illustrator 19.2.1, SVG Export Plug-In . SVG Version: 6.00 Build 0)  -->
<svg version="1.1" id="Layer_8" xmlns="http://www.w3.org/2000/svg" xmlns:xlink="http://www.w3.org/1999/xlink" x="0px" y="0px"
	 viewBox="0 0 23.072 19.981" style="enable-background:new 0 0 23.072 19.981;" xml:space="preserve">
<g>
	<g>
		<path style="fill:#000102;" d="M22.656,6.636c-0.04-0.159-0.146-0.294-0.291-0.372c-0.145-0.077-0.315-0.09-0.471-0.036
			c-1.359,0.477-3.457,0.784-5.816,0.784c-0.573,0-1.126-0.022-1.662-0.056c-0.277,1.251-0.72,2.399-1.285,3.411
			c0.027-0.001,0.054-0.005,0.081-0.005c0.733,0,1.327-0.061,1.327,0.432c0,0.493-0.594,1.354-1.327,1.354
			c-0.427,0-0.803-0.138-1.045-0.349c-0.733,0.909-1.589,1.625-2.531,2.099c1.063,3.574,3.547,6.082,6.443,6.082
			c3.863,0,6.994-4.462,6.994-9.966C23.072,8.828,22.924,7.691,22.656,6.636z M18.866,17.071c-0.012,0.052-0.052,0.095-0.103,0.112
			c-0.052,0.017-0.108,0.006-0.15-0.029c-0.545-0.457-1.472-0.761-2.535-0.761c-1.063,0-1.99,0.304-2.535,0.761
			c-0.041,0.034-0.098,0.045-0.15,0.029c-0.051-0.017-0.09-0.06-0.103-0.112c-0.045-0.192-0.073-0.39-0.073-0.595
			c0-1.578,1.281-2.858,2.86-2.858c1.58,0,2.86,1.279,2.86,2.858C18.939,16.681,18.911,16.879,18.866,17.071z M18.945,12.149
			c-0.733,0-1.327-0.861-1.327-1.355c0-0.493,0.594-0.432,1.327-0.432c0.733,0,1.327,0.4,1.327,0.894
			C20.272,11.749,19.678,12.149,18.945,12.149z M13.988,3.819c0-1.187-0.148-2.324-0.417-3.378c-0.04-0.16-0.146-0.294-0.291-0.372
			C13.195,0.023,13.099,0,13.004,0c-0.065,0-0.131,0.011-0.194,0.033C11.45,0.51,9.353,0.817,6.994,0.817S2.537,0.51,1.178,0.033
			C1.115,0.011,1.05,0,0.985,0C0.889,0,0.794,0.023,0.707,0.069C0.563,0.147,0.457,0.282,0.417,0.441C0.148,1.496,0,2.632,0,3.819
			c0,5.504,3.131,9.966,6.994,9.966C10.857,13.785,13.988,9.323,13.988,3.819z M2.801,5.058c0-0.493,0.594-0.893,1.327-0.893
			c0.733,0,1.327,0.861,1.327,1.354c0,0.493-0.594,0.432-1.327,0.432C3.395,5.951,2.801,5.551,2.801,5.058z M6.994,11.901
			c-1.58,0-2.86-1.279-2.86-2.858c0-0.205,0.028-0.403,0.073-0.595C4.219,8.396,4.258,8.353,4.31,8.336
			c0.051-0.017,0.108-0.006,0.15,0.029c0.545,0.458,1.472,0.761,2.535,0.761c1.063,0,1.99-0.304,2.535-0.761
			C9.57,8.33,9.627,8.319,9.678,8.336s0.09,0.06,0.103,0.112c0.045,0.192,0.073,0.39,0.073,0.595
			C9.854,10.622,8.573,11.901,6.994,11.901z M8.533,5.519c0-0.493,0.594-1.354,1.327-1.354c0.733,0,1.327,0.4,1.327,0.893
			c0,0.493-0.594,0.893-1.327,0.893C9.127,5.951,8.533,6.012,8.533,5.519z"/>
	</g>
</g>
</svg>
