<?xml version="1.0" encoding="iso-8859-1"?>
<!-- Generator: Adobe Illustrator 19.2.1, SVG Export Plug-In . SVG Version: 6.00 Build 0)  -->
<svg version="1.1" id="Layer_8" xmlns="http://www.w3.org/2000/svg" xmlns:xlink="http://www.w3.org/1999/xlink" x="0px" y="0px"
	 viewBox="0 0 32.983 20.004" style="enable-background:new 0 0 32.983 20.004;" xml:space="preserve">
<path style="fill:#000102;" d="M30.341,14.747v5.257h2.641v-7.886H2.641V1.347c0-0.342-0.129-0.652-0.387-0.93
	C1.997,0.139,1.686,0,1.321,0C0.956,0,0.644,0.139,0.387,0.417C0.129,0.695,0,1.004,0,1.346v18.658h2.641v-5.257H30.341z
	 M6.796,6.732c0.666,0,1.245-0.235,1.739-0.705c0.494-0.47,0.741-1.037,0.741-1.699S9.029,3.099,8.536,2.629
	c-0.494-0.47-1.074-0.705-1.739-0.705c-0.666,0-1.235,0.235-1.707,0.705c-0.472,0.47-0.708,1.037-0.708,1.699
	s0.236,1.229,0.708,1.699C5.562,6.497,6.131,6.732,6.796,6.732z M32.983,10.13V6.924c0-0.513-0.183-0.93-0.548-1.25
	c-0.365-0.32-0.827-0.524-1.385-0.609L11.918,3.206h-0.129c-0.344,0-0.633,0.118-0.87,0.352c-0.236,0.235-0.354,0.524-0.354,0.866
	v3.719H5.669c-0.816,0-1.224,0.331-1.224,0.994c0,0.662,0.408,0.994,1.224,0.994H32.983L32.983,10.13z"/>
</svg>
