<?xml version="1.0" encoding="iso-8859-1"?>
<!-- Generator: Adobe Illustrator 19.2.1, SVG Export Plug-In . SVG Version: 6.00 Build 0)  -->
<svg version="1.1" id="Layer_8" xmlns="http://www.w3.org/2000/svg" xmlns:xlink="http://www.w3.org/1999/xlink" x="0px" y="0px"
	 viewBox="0 0 11.122 20.004" style="enable-background:new 0 0 11.122 20.004;" xml:space="preserve">
<g>
	<g>
		<path style="fill:#000102;" d="M9.848,0c-1.2,0-2.199,0.934-2.284,2.138l-0.612,8.598c-0.027,0.375,0.102,0.746,0.356,1.021
			c0.255,0.275,0.61,0.434,0.983,0.434h0.036l-0.209,6.732c-0.009,0.288,0.098,0.559,0.298,0.765
			c0.199,0.207,0.473,0.315,0.759,0.315h0.877c0.584,0,1.07-0.463,1.07-1.051V1.276C11.123,0.572,10.548,0,9.848,0z M4.803,0.014
			H4.714c-0.213,0-0.377,0.161-0.377,0.377V4.18c0,0.336-0.28,0.611-0.613,0.611h-0.09c-0.333,0-0.616-0.275-0.616-0.611V0.391
			c0-0.215-0.161-0.377-0.375-0.377H2.552c-0.214,0-0.384,0.161-0.384,0.377V4.18c0,0.336-0.273,0.611-0.607,0.611H1.472
			c-0.333,0-0.592-0.275-0.592-0.611V0.391c0-0.215-0.185-0.377-0.399-0.377h-0.09C0.178,0.014,0,0.175,0,0.391v5.731
			c0,0.705,0.571,1.262,1.271,1.262H1.44L1.083,18.92c-0.009,0.288,0.098,0.561,0.298,0.767c0.199,0.207,0.473,0.317,0.76,0.317
			h0.843c0.286,0,0.56-0.11,0.759-0.317c0.199-0.207,0.306-0.483,0.298-0.771L3.682,7.384h0.241c0.701,0,1.262-0.558,1.262-1.262
			V0.39C5.184,0.175,5.018,0.014,4.803,0.014z"/>
	</g>
</g>
</svg>
