<?xml version="1.0" encoding="iso-8859-1"?>
<!-- Generator: Adobe Illustrator 19.2.1, SVG Export Plug-In . SVG Version: 6.00 Build 0)  -->
<svg version="1.1" id="Layer_8" xmlns="http://www.w3.org/2000/svg" xmlns:xlink="http://www.w3.org/1999/xlink" x="0px" y="0px"
	 viewBox="0 0 23.99 19.992" style="enable-background:new 0 0 23.99 19.992;" xml:space="preserve">
<path style="fill:#000102;" d="M4.145,7.022h1.951l0.293,8.972H3.901L4.145,7.022z M2.487,16.481h19.017v1.024h1.463v1.463h1.024
	v1.024H0v-1.024h1.024v-1.463h1.463V16.481z M22.479,4.389L11.995,0L1.512,4.389v0.634h20.967V4.389z M3.511,5.51H20.48v0.975H3.511
	V5.51z M17.847,7.022h1.951l0.292,8.972h-2.487L17.847,7.022z M13.263,7.022h1.999l0.293,8.972h-2.536L13.263,7.022z M8.728,7.022
	h1.95l0.293,8.972H8.436L8.728,7.022z"/>
</svg>
