<?xml version="1.0" encoding="iso-8859-1"?>
<!-- Generator: Adobe Illustrator 19.2.1, SVG Export Plug-In . SVG Version: 6.00 Build 0)  -->
<svg version="1.1" id="Layer_8" xmlns="http://www.w3.org/2000/svg" xmlns:xlink="http://www.w3.org/1999/xlink" x="0px" y="0px"
	 viewBox="0 0 21.817 20.007" style="enable-background:new 0 0 21.817 20.007;" xml:space="preserve">
<g>
	<g>
		<path style="fill:#000102;" d="M21.539,8.583l-0.449-0.448c-0.371-0.37-0.972-0.37-1.342,0l-1.868,1.862h-6.479
			c-0.42,0-0.76,0.339-0.76,0.758v3.284H0.949C0.425,14.04,0,14.464,0,14.987v0.634c0,0.522,0.425,0.946,0.949,0.946H3.44
			l-1.895,2.187c-0.275,0.317-0.239,0.795,0.078,1.069c0.144,0.124,0.32,0.185,0.497,0.185c0.213,0,0.425-0.089,0.575-0.262
			l1.878-2.168h8.793l1.981,1.975c0.297,0.296,0.778,0.296,1.075,0c0.297-0.296,0.297-0.776,0-1.072l-1.92-1.914h2.283
			c0.524,0,0.949-0.424,0.949-0.946v-0.634c0-0.345-0.187-0.644-0.464-0.809l4.268-4.256C21.909,9.552,21.909,8.953,21.539,8.583z
			 M13.882,14.04h-1.721v-2.526h4.198L13.882,14.04z M5.895,1.321V1.054c0-0.118-0.035-0.232-0.095-0.332L5.432,0.113
			C5.39,0.043,5.313,0,5.232,0c-0.081,0-0.158,0.043-0.2,0.113L4.665,0.722c-0.06,0.1-0.092,0.215-0.092,0.332V1.32
			c0.22-0.038,0.436-0.057,0.661-0.057C5.459,1.263,5.674,1.282,5.895,1.321z M4.573,9.013c0,0.117,0.032,0.232,0.092,0.332
			l0.367,0.609c0.042,0.07,0.118,0.113,0.2,0.113c0.082,0,0.157-0.043,0.2-0.113l0.368-0.609c0.061-0.1,0.095-0.215,0.095-0.332
			V8.747C5.674,8.785,5.458,8.805,5.233,8.805c-0.225,0-0.441-0.02-0.661-0.058V9.013z M8.328,2.873l0.19-0.19
			c0.083-0.082,0.142-0.186,0.17-0.3l0.173-0.689C8.881,1.616,8.857,1.532,8.8,1.474C8.742,1.416,8.658,1.393,8.578,1.413
			L7.887,1.585C7.773,1.614,7.67,1.672,7.586,1.755l-0.189,0.19C7.759,2.198,8.074,2.513,8.328,2.873z M1.883,8.653l0.691-0.172
			c0.114-0.028,0.218-0.087,0.301-0.17l0.19-0.189C2.702,7.869,2.387,7.555,2.134,7.194l-0.19,0.189
			c-0.083,0.082-0.142,0.186-0.171,0.3L1.601,8.372c-0.02,0.079,0.003,0.163,0.061,0.22C1.72,8.651,1.803,8.674,1.883,8.653z
			 M0.907,5.602C1.008,5.662,1.123,5.699,1.24,5.699h0.267c-0.038-0.219-0.057-0.436-0.057-0.66c0-0.224,0.02-0.44,0.057-0.659H1.24
			c-0.118,0-0.233,0.03-0.333,0.09L0.296,4.834c-0.07,0.042-0.113,0.117-0.113,0.199c0,0.082,0.043,0.157,0.113,0.199L0.907,5.602z
			 M9.221,4.38H8.954c0.038,0.219,0.058,0.435,0.058,0.659c0,0.224-0.02,0.44-0.058,0.66h0.267c0.118,0,0.233-0.036,0.333-0.096
			l0.611-0.367c0.07-0.042,0.113-0.119,0.113-0.2c0-0.082-0.043-0.159-0.113-0.201L9.554,4.47C9.454,4.41,9.339,4.38,9.221,4.38z
			 M1.944,2.684l0.19,0.189c0.254-0.36,0.569-0.675,0.931-0.928l-0.19-0.189c-0.083-0.083-0.187-0.142-0.301-0.17l-0.69-0.172
			c-0.08-0.02-0.164,0.003-0.222,0.061C1.604,1.533,1.581,1.616,1.6,1.695l0.173,0.689C1.802,2.498,1.861,2.602,1.944,2.684z
			 M7.888,8.482l0.69,0.172c0.08,0.02,0.163-0.003,0.221-0.061c0.058-0.058,0.081-0.141,0.062-0.22L8.688,7.683
			c-0.028-0.114-0.087-0.217-0.17-0.3l-0.19-0.19c-0.254,0.361-0.569,0.675-0.93,0.928l0.19,0.19
			C7.67,8.394,7.774,8.453,7.888,8.482z M7.375,1.613c0.045-0.108,0.06-0.227,0.043-0.342L7.315,0.568
			c-0.012-0.08-0.066-0.149-0.141-0.18C7.098,0.356,7.011,0.367,6.946,0.415L6.373,0.837C6.278,0.906,6.204,1,6.159,1.108
			L6.057,1.353C6.495,1.451,6.905,1.625,7.272,1.86L7.375,1.613z M3.289,9.68C3.365,9.711,3.451,9.7,3.517,9.652L4.09,9.231
			c0.094-0.07,0.168-0.164,0.214-0.272l0.102-0.246C3.967,8.616,3.557,8.443,3.191,8.208L3.088,8.454
			C3.043,8.562,3.028,8.68,3.045,8.796l0.104,0.703C3.16,9.579,3.214,9.648,3.289,9.68z M8.422,3.014
			C8.656,3.38,8.828,3.79,8.924,4.228l0.247-0.102C9.28,4.082,9.374,4.009,9.445,3.915l0.425-0.57
			c0.049-0.065,0.06-0.151,0.029-0.226c-0.031-0.075-0.1-0.129-0.181-0.141L9.014,2.871C8.898,2.853,8.779,2.867,8.671,2.911
			L8.422,3.014z M2.039,7.053C1.805,6.686,1.633,6.277,1.537,5.839L1.29,5.941C1.181,5.985,1.087,6.058,1.017,6.152l-0.425,0.57
			C0.543,6.787,0.532,6.873,0.563,6.949c0.031,0.076,0.099,0.128,0.18,0.141l0.704,0.107C1.564,7.214,1.683,7.2,1.791,7.155
			L2.039,7.053z M9.708,7.111c0.081-0.012,0.15-0.065,0.182-0.141c0.031-0.075,0.021-0.161-0.027-0.227L9.44,6.172
			C9.37,6.077,9.276,6.005,9.167,5.959L8.92,5.857C8.823,6.294,8.649,6.702,8.413,7.068L8.66,7.171
			c0.108,0.045,0.227,0.06,0.343,0.043L9.708,7.111z M1.022,3.895c0.07,0.095,0.164,0.167,0.272,0.213l0.246,0.102
			c0.098-0.437,0.272-0.846,0.508-1.211L1.801,2.896c-0.108-0.045-0.227-0.06-0.343-0.043L0.753,2.956
			C0.672,2.967,0.604,3.021,0.572,3.096c-0.031,0.075-0.02,0.161,0.028,0.227L1.022,3.895z M3.206,1.851
			c0.367-0.234,0.778-0.405,1.217-0.501L4.321,1.104C4.276,0.995,4.203,0.902,4.109,0.832L3.537,0.408
			C3.472,0.359,3.385,0.349,3.31,0.379C3.235,0.41,3.181,0.479,3.169,0.56L3.062,1.261C3.045,1.377,3.059,1.495,3.103,1.604
			L3.206,1.851z M6.353,9.236l0.571,0.424c0.066,0.049,0.152,0.06,0.228,0.029c0.076-0.031,0.129-0.099,0.142-0.18L7.4,8.806
			c0.018-0.115,0.003-0.234-0.041-0.342L7.256,8.216C6.889,8.45,6.478,8.621,6.039,8.717l0.102,0.246
			C6.186,9.072,6.259,9.165,6.353,9.236z M8.353,5.034c0-1.72-1.398-3.114-3.123-3.114c-1.725,0-3.123,1.394-3.123,3.114
			c0,1.72,1.398,3.114,3.123,3.114C6.955,8.148,8.353,6.754,8.353,5.034z"/>
	</g>
</g>
</svg>
