<?xml version="1.0" encoding="iso-8859-1"?>
<!-- Generator: Adobe Illustrator 19.2.1, SVG Export Plug-In . SVG Version: 6.00 Build 0)  -->
<svg version="1.1" id="Layer_8" xmlns="http://www.w3.org/2000/svg" xmlns:xlink="http://www.w3.org/1999/xlink" x="0px" y="0px"
	 viewBox="0 0 17.001 25.005" style="enable-background:new 0 0 17.001 25.005;" xml:space="preserve">
<path style="fill:#000102;" d="M16.529,15.133l-4.494-3.887V7.977h0.436c0.17,0,0.328-0.097,0.392-0.252
	c0.065-0.155,0.033-0.33-0.087-0.449L9.322,3.837V3.136h0.526c0.45,0,0.816-0.363,0.816-0.811c0-0.447-0.365-0.811-0.816-0.811
	H9.322V0.817C9.322,0.366,8.954,0,8.5,0C8.046,0,7.677,0.366,7.677,0.817v0.697H7.155c-0.45,0-0.815,0.363-0.815,0.811
	s0.365,0.811,0.815,0.811h0.522v0.7L4.224,7.275c-0.119,0.119-0.15,0.294-0.086,0.449C4.204,7.88,4.362,7.977,4.532,7.977h0.432
	v3.269l-4.493,3.888c-0.435,0.377-0.585,0.943-0.382,1.479c0.203,0.536,0.725,0.82,1.302,0.82h0.296v7.156
	c0,0.23,0.223,0.417,0.454,0.417h4.409v-4.352c0-1.075,0.868-1.946,1.951-1.946c1.082,0,1.95,0.871,1.95,1.946v4.352h4.413
	c0.231,0,0.45-0.187,0.45-0.417v-7.155h0.299c0.577,0,1.098-0.284,1.3-0.82C17.115,16.076,16.964,15.51,16.529,15.133z
	 M9.622,11.151c0,0.169-0.132,0.296-0.303,0.296H7.708c-0.171,0-0.32-0.127-0.32-0.296V9.274c0-0.61,0.501-1.106,1.117-1.106
	c0.615,0,1.117,0.495,1.117,1.106V11.151z"/>
</svg>
