<?xml version="1.0" encoding="iso-8859-1"?>
<!-- Generator: Adobe Illustrator 19.2.1, SVG Export Plug-In . SVG Version: 6.00 Build 0)  -->
<svg version="1.1" id="Layer_8" xmlns="http://www.w3.org/2000/svg" xmlns:xlink="http://www.w3.org/1999/xlink" x="0px" y="0px"
	 viewBox="0 0 21.542 20.001" style="enable-background:new 0 0 21.542 20.001;" xml:space="preserve">
<g>
	<g>
		<path style="fill:#000102;" d="M20.769,11.672c-0.218-0.014-0.452-0.021-0.698-0.021c-0.467,0-1.026,0.024-1.673,0.09
			l-0.056-2.441c0.254,0.09,0.525,0.138,0.804,0.138c1.32,0,2.393-1.073,2.393-2.393c0-0.759-0.356-1.464-0.959-1.915
			c0.02-0.117,0.031-0.237,0.031-0.357c0-0.897-0.574-1.68-1.402-1.962c0.089-0.235,0.136-0.486,0.136-0.738
			C19.346,0.93,18.416,0,17.273,0C16.13,0,15.2,0.93,15.2,2.073c0,0.021,0,0.042,0.001,0.064c-1.039,0.112-1.85,0.994-1.85,2.061
			c0,0.522,0.195,1.018,0.543,1.398c-0.473,0.45-0.74,1.067-0.74,1.73c0,1.32,1.074,2.393,2.393,2.393
			c0.283,0,0.559-0.05,0.817-0.144l-0.058,2.486c-1.29,0.258-2.8,0.666-4.528,1.297c-3.541,1.293-6.346,2.88-7.702,3.711
			c-0.931,0.57-1.729,1.116-2.31,1.58c-0.866,0.692-0.908,0.924-0.879,1.087c0.022,0.126,0.128,0.26,0.359,0.26h19.381
			c0.019,0.002,0.047,0.004,0.083,0.004c0.109,0,0.319-0.021,0.503-0.158c0.15-0.112,0.329-0.338,0.329-0.778v-6.595
			C21.542,12.128,21.408,11.712,20.769,11.672z M10.745,12.197c0.125-0.048,0.218-0.173,0.232-0.313
			c0.011-0.117-0.038-0.223-0.132-0.281c-1.104-0.688-2.807-1.296-4.522-1.724L6.275,7.822c0.172,0.052,0.354,0.08,0.54,0.08
			c1.02,0,1.849-0.829,1.849-1.849c0-0.575-0.263-1.108-0.712-1.458c0.012-0.08,0.018-0.16,0.018-0.241
			c0-0.676-0.42-1.268-1.032-1.503c0.056-0.166,0.085-0.34,0.085-0.516c0-0.888-0.722-1.61-1.61-1.61
			c-0.886,0-1.607,0.72-1.61,1.605C3.023,2.441,2.421,3.113,2.421,3.924c0,0.386,0.137,0.754,0.383,1.043
			C2.465,5.31,2.274,5.77,2.274,6.263c0,1.02,0.83,1.849,1.849,1.849c0.189,0,0.374-0.029,0.549-0.084l-0.035,1.49
			C3.63,9.337,2.69,9.235,1.951,9.235C0.656,9.235,0,9.533,0,10.121v7.281c0,0.286,0.173,0.414,0.345,0.414
			c0.134,0,0.24-0.076,0.279-0.108c0.082-0.068,0.162-0.132,0.237-0.192c0.626-0.501,1.477-1.083,2.458-1.684
			C4.623,15.034,7.323,13.5,10.745,12.197z"/>
	</g>
</g>
</svg>
