<?xml version="1.0" encoding="iso-8859-1"?>
<!-- Generator: Adobe Illustrator 19.2.1, SVG Export Plug-In . SVG Version: 6.00 Build 0)  -->
<svg version="1.1" id="Layer_8" xmlns="http://www.w3.org/2000/svg" xmlns:xlink="http://www.w3.org/1999/xlink" x="0px" y="0px"
	 viewBox="0 0 23.329 19.982" style="enable-background:new 0 0 23.329 19.982;" xml:space="preserve">
<g>
	<g>
		<path style="fill:#000102;" d="M18.536,10.735c0.094,0.43,0.315,0.858,0.637,1.166c0.046,0.044,0.073,0.063,0.073,0.063
			s-0.002-0.3-0.005-0.346c0.003-0.126,0.01-0.249,0.022-0.375c0.051-0.561,0.191-1.11,0.588-1.529
			c0.218-0.23,0.487-0.404,0.743-0.59c0.327-0.237,0.593-0.501,0.792-0.852c0.206-0.358,0.32-0.767,0.329-1.18
			c0.015-0.609-0.201-1.253-0.607-1.713c-0.029-0.034-0.056-0.063-0.077-0.084c-0.044-0.044-0.07-0.065-0.07-0.065
			s0,0.034-0.002,0.094c-0.002,0.029-0.002,0.065-0.005,0.109c-0.027,0.711-0.133,1.543-0.586,2.119
			c-0.259,0.331-0.615,0.52-0.939,0.777c-0.675,0.537-1.048,1.393-0.92,2.254C18.517,10.633,18.524,10.684,18.536,10.735z
			 M1.74,17.732c0-0.774,1.326-1.483,2.769-2.039c0.16-0.063,0.065-0.24-0.109-0.206C1.709,16.027,0,16.833,0,17.732
			c0,0.9,1.709,1.705,4.401,2.245c0.174,0.036,0.271-0.143,0.111-0.205C3.067,19.215,1.74,18.507,1.74,17.732z M2.06,10.735
			c0.094,0.43,0.315,0.858,0.637,1.166c0.046,0.044,0.073,0.063,0.073,0.063s0-0.006,0-0.007c0,0,0.005,0.004,0.005,0.004
			c-0.005,0.003-0.005-0.298-0.005-0.346c0.002-0.126,0.01-0.251,0.022-0.375c0.051-0.559,0.191-1.108,0.588-1.529
			c0.218-0.23,0.486-0.404,0.743-0.59C4.449,8.887,4.715,8.623,4.914,8.27c0.203-0.36,0.32-0.769,0.329-1.18
			c0.015-0.61-0.203-1.253-0.607-1.713C4.606,5.343,4.58,5.317,4.558,5.292c-0.044-0.043-0.07-0.065-0.07-0.065s0,0.007,0,0.007
			c0,0-0.005-0.004-0.005-0.004s0,0.034-0.002,0.094C4.478,5.353,4.478,5.389,4.475,5.433C4.449,6.144,4.342,6.976,3.89,7.552
			C3.761,7.716,3.608,7.846,3.447,7.966C3.399,8.001,3.351,8.037,3.302,8.072C3.185,8.155,3.066,8.237,2.951,8.328
			c-0.675,0.537-1.048,1.393-0.92,2.254C2.041,10.633,2.048,10.684,2.06,10.735z M19.87,17.708c0-0.682-1.106-1.294-2.851-1.708
			v-2.324c0-0.963-0.779-1.742-1.743-1.742h-1.973c-0.336,0-0.586-0.319-0.496-0.646c0.153-0.554,0.588-0.873,0.985-1.248
			c0.375-0.355,0.591-0.772,0.826-1.227c0.114-0.22,0.278-0.321,0.44-0.496c0.177-0.191,0.334-0.401,0.46-0.629
			c0.261-0.469,0.402-1.004,0.402-1.541c0-0.593-0.162-1.147-0.445-1.621c0.002-0.298-0.029-0.912-0.276-1.565
			c-0.276-0.73-0.886-1.65-2.215-2.037C12.41,0.353,11.616,0,10.745,0c-1.75,0-3.176,1.422-3.176,3.174
			c0,0.218,0.022,0.428,0.063,0.634c-0.162,0.477-0.237,0.98-0.22,1.507c0.027,0.866,0.298,1.708,0.69,2.474
			c0.186,0.363,0.252,0.747,0.414,1.125c0.196,0.457,0.479,0.878,0.852,1.21c0.375,0.331,0.77,0.663,0.91,1.168
			c0.09,0.324-0.157,0.646-0.496,0.646h-1.73c-0.963,0-1.743,0.779-1.743,1.742v2.324c-1.745,0.414-2.851,1.026-2.851,1.708
			c0,0.713,1.205,1.347,3.084,1.761c0.082,0.017,0.119-0.097,0.041-0.13c-1.046-0.436-1.68-1.007-1.68-1.633
			c0-0.568,0.525-1.093,1.406-1.509v1.509c0,0.67,2.396,1.214,5.354,1.214c2.958,0,5.354-0.544,5.354-1.214v-1.512
			c0.881,0.418,1.406,0.941,1.406,1.509c0,0.627-0.634,1.197-1.68,1.633c-0.078,0.031-0.041,0.148,0.041,0.131
			C18.667,19.056,19.87,18.422,19.87,17.708z M15.312,6.149c0,0.571-0.187,1.098-0.504,1.526V7.672
			c0.003-1.11-0.549-2.09-1.397-2.682h1.624C15.213,5.338,15.312,5.733,15.312,6.149z M10.745,0.605
			c0.329,0,0.646,0.063,0.937,0.177C11.028,0.825,10.343,1.03,9.73,1.369C9.125,1.705,8.612,2.153,8.222,2.682
			C8.452,1.5,9.496,0.605,10.745,0.605z M10.321,4.617c-0.169,0.065-0.324,0.143-0.467,0.23c-0.215,0.13-0.402,0.285-0.562,0.448
			c-0.024,0.024-0.046,0.048-0.07,0.072C9.176,5.418,9.13,5.471,9.089,5.522c-0.063,0.08-0.123,0.162-0.177,0.244
			c-0.094,0.145-0.177,0.29-0.245,0.433c-0.126,0.266-0.215,0.53-0.278,0.769C8.38,6.944,8.37,6.92,8.36,6.896
			c-0.312-0.803-0.387-1.492-0.332-2.08c0.017-0.174,0.046-0.339,0.082-0.493c0.041-0.172,0.092-0.331,0.152-0.479
			c0.07-0.174,0.148-0.334,0.232-0.476c0.348-0.6,0.878-1.108,1.527-1.468c0.605-0.336,1.288-0.52,1.917-0.52
			c0.198,0,0.392,0.019,0.574,0.056c0.051,0.01,0.102,0.022,0.15,0.034c0.179,0.043,0.349,0.099,0.506,0.167
			c0.174,0.073,0.334,0.16,0.482,0.261c0.443,0.302,0.77,0.728,0.98,1.275c0.073,0.191,0.123,0.38,0.16,0.556
			c0.036,0.177,0.058,0.341,0.068,0.481c0.005,0.068,0.01,0.128,0.01,0.184h-3.251c-0.298,0-0.566,0.029-0.813,0.082
			C10.631,4.511,10.471,4.56,10.321,4.617z M11.553,10.232c-0.244,0-0.448-0.109-0.516-0.259c-0.024-0.053,0.034-0.106,0.114-0.106
			h0.799c0.087,0.002,0.143,0.055,0.119,0.106C12.001,10.123,11.798,10.232,11.553,10.232z M11.955,9.554h-0.799
			c-0.08,0-0.138-0.053-0.114-0.106c0.056-0.126,0.16-0.223,0.346-0.252c0.022-0.003,0.046,0,0.068,0.01l0.051,0.024
			c0.031,0.014,0.07,0.014,0.102,0l0.051-0.024c0.022-0.01,0.044-0.014,0.068-0.01c0.186,0.027,0.29,0.126,0.346,0.252
			C12.093,9.501,12.037,9.554,11.955,9.554z M18.928,15.488c-0.174-0.034-0.269,0.145-0.109,0.206
			c1.445,0.556,2.772,1.267,2.772,2.039c0,0.772-1.329,1.483-2.772,2.039c-0.16,0.063-0.065,0.24,0.109,0.205
			c2.692-0.539,4.401-1.345,4.401-2.245C23.329,16.833,21.62,16.027,18.928,15.488z"/>
	</g>
</g>
</svg>
