<?xml version="1.0" encoding="iso-8859-1"?>
<!-- Generator: Adobe Illustrator 19.2.1, SVG Export Plug-In . SVG Version: 6.00 Build 0)  -->
<svg version="1.1" id="Layer_8" xmlns="http://www.w3.org/2000/svg" xmlns:xlink="http://www.w3.org/1999/xlink" x="0px" y="0px"
	 viewBox="0 0 30.539 29.99" style="enable-background:new 0 0 30.539 29.99;" xml:space="preserve">
<path style="fill:#000102;" d="M12.871,16.496c0,0.866-0.702,1.569-1.568,1.569c-0.866,0-1.568-0.702-1.568-1.569
	c0-0.866,0.702-1.568,1.568-1.568C12.169,14.927,12.871,15.63,12.871,16.496z M19.236,14.927c-0.866,0-1.568,0.702-1.568,1.569
	c0,0.866,0.702,1.568,1.568,1.568c0.866,0,1.568-0.702,1.568-1.568C20.804,15.63,20.102,14.927,19.236,14.927z M30.539,15.622v2.981
	c0,1.497-1.213,2.71-2.709,2.71h-1.966c-1.948,5.41-6.922,8.678-10.595,8.678c-3.673,0-8.647-3.268-10.595-8.678H2.709
	C1.213,21.312,0,20.099,0,18.602v-2.981c0-1.03,0.574-1.925,1.42-2.384c0.028-4.232,1.261-7.537,3.67-9.822
	C7.48,1.149,10.904,0,15.269,0c4.365,0,7.79,1.149,10.179,3.416c2.409,2.285,3.642,5.59,3.67,9.822
	C29.964,13.696,30.539,14.592,30.539,15.622z M24.805,16.506c0-0.697-0.036-1.352-0.088-1.987c-1.202-1.1-3.385-1.935-6.139-2.246
	c0.362,0.407,0.674,0.942,0.864,1.647c-1.687-1.33-4.999-1.013-7.504-3.988c-0.144-0.166-0.268-0.325-0.375-0.47
	c-0.001-0.002-0.003-0.003-0.004-0.005l0,0c-0.446-0.603-0.598-0.961-0.606-0.565c-0.073,3.42-2.497,6.086-5.188,6.462
	c-0.017,0.376-0.031,0.756-0.031,1.152c0,1.446,0.236,2.763,0.637,3.95c1.511,1.824,4.007,2.339,6.217,2.475
	c0.41-0.653,1.33-1.108,2.402-1.108c1.453,0,2.631,0.836,2.631,1.868c0,1.032-1.178,1.868-2.631,1.868
	c-1.118,0-2.07-0.496-2.451-1.194c-1.544-0.09-3.242-0.353-4.754-1.068c2.128,3.137,5.426,4.795,7.485,4.795
	C18.506,28.093,24.805,24.003,24.805,16.506z M27.488,12.912C27.315,5.527,23.101,1.626,15.269,1.626
	c-7.832,0-12.046,3.901-12.218,11.286h1.042c0.381-2.489,1.187-4.536,2.409-6.11c1.949-2.508,4.898-3.78,8.767-3.78
	c3.868,0,6.818,1.272,8.767,3.78c1.223,1.574,2.028,3.621,2.409,6.11H27.488L27.488,12.912z"/>
</svg>
