<?xml version="1.0" encoding="iso-8859-1"?>
<!-- Generator: Adobe Illustrator 19.2.1, SVG Export Plug-In . SVG Version: 6.00 Build 0)  -->
<svg version="1.1" id="Layer_8" xmlns="http://www.w3.org/2000/svg" xmlns:xlink="http://www.w3.org/1999/xlink" x="0px" y="0px"
	 viewBox="0 0 31.748 30.018" style="enable-background:new 0 0 31.748 30.018;" xml:space="preserve">
<g>
	<g>
		<path style="fill:#000102;" d="M31.668,15.47C27.887-1.06,14.074,1.788,14.074,1.788s-1.409-0.487,0.894-1.598
			c-4.193-1.076-6.803,2.779-6.803,2.779S7.271,3.003,7.271,1.371C6.205,1.509,7.202,4.357,7.202,4.357s-2.955,0.07-3.643-0.415
			c-0.343,1.11,2.377,0.886,3.162,1.18C-7.094,6.093,4.658,25.196,4.727,23.667c-2.061-8.96,2.887-12.225,2.887-12.225
			s4.192,4.272,7.56,3.891c-3.574-1.389-2.875-2.085-2.875-2.085s5.727,0.486,11.26-2.153c2.336,0.103,4.261,5.193,4.811,11.531
			c2.595-1.893,1.924-7.156,1.924-7.156S32.149,17,31.668,15.47z M21.797,27.158c-0.888-0.743-2.95-3.141-5.545-0.561
			c-2.517-2.318-4.512-0.011-5.379,0.717c-3.247,1.51-3.402-0.339-3.479-0.834c-2.448,4.454,5.36,3.437,6.495,3.437
			c1.078,0,2.489-0.652,2.627-0.716c0.523,0.215,1.482,0.56,2.266,0.56c1.133,0,8.942,1.016,6.494-3.438
			C25.199,26.82,25.044,28.67,21.797,27.158z"/>
	</g>
</g>
</svg>
