<?xml version="1.0" encoding="iso-8859-1"?>
<!-- Generator: Adobe Illustrator 19.2.1, SVG Export Plug-In . SVG Version: 6.00 Build 0)  -->
<svg version="1.1" id="Layer_8" xmlns="http://www.w3.org/2000/svg" xmlns:xlink="http://www.w3.org/1999/xlink" x="0px" y="0px"
	 viewBox="0 0 36.917 29.984" style="enable-background:new 0 0 36.917 29.984;" xml:space="preserve">
<g>
	<g>
		<path style="fill:#000102;" d="M18.008,17.736H17.11c-0.466,0-0.844-0.38-0.844-0.848c0-0.175,0.069-0.34,0.193-0.46
			c0.522-0.512,0.961-1.198,1.279-1.937c0.064,0.048,0.134,0.083,0.212,0.083c0.504,0,1.097-1.12,1.097-1.882
			c0-0.763-0.069-1.382-0.575-1.382c-0.06,0-0.122,0.01-0.187,0.026c-0.036-2.069-0.556-4.65-3.701-4.65
			c-3.282,0-3.664,2.576-3.701,4.643c-0.046-0.009-0.093-0.019-0.135-0.019c-0.505,0-0.574,0.619-0.574,1.382
			c0,0.763,0.591,1.882,1.096,1.882c0.063,0,0.12-0.017,0.174-0.049c0.317,0.727,0.751,1.4,1.265,1.904
			c0.124,0.121,0.193,0.288,0.193,0.461c0,0.468-0.378,0.847-0.844,0.847h-0.9c-1.921,0-3.478,1.565-3.478,3.494v0.968
			c0,0.61,0.491,1.103,1.098,1.103h11.606c0.606,0,1.097-0.493,1.097-1.103V21.23C21.486,19.299,19.93,17.736,18.008,17.736z
			 M28.421,8.15h-9.733c0.281,0.625,0.482,1.394,0.565,2.344c0.208,0.129,0.365,0.337,0.491,0.587h8.677
			c0.45,0,0.814-0.366,0.814-0.817V8.968C29.235,8.517,28.872,8.15,28.421,8.15z M18.288,16.423H28.42
			c0.449,0,0.814-0.365,0.814-0.817V14.31c0.001-0.452-0.362-0.817-0.813-0.817h-8.478c-0.23,0.873-0.797,1.787-1.581,2.031
			c-0.023,0.043-0.05,0.081-0.074,0.125V16.423z M28.421,18.833h-6.618c0.437,0.695,0.693,1.515,0.693,2.395v0.537h5.925
			c0.45,0,0.814-0.365,0.814-0.817v-1.297C29.235,19.2,28.872,18.833,28.421,18.833z M31.919,0H4.999C2.238,0,0,2.247,0,5.022
			v19.941c0,2.773,2.238,5.021,4.999,5.021h26.92c2.761,0,4.998-2.248,4.998-5.021V5.022C36.917,2.247,34.68,0,31.919,0z
			 M34.558,24.963c0,1.461-1.184,2.651-2.639,2.651H4.999c-1.456,0-2.639-1.189-2.639-2.651V5.022c0-1.462,1.184-2.651,2.639-2.651
			h26.92c1.455,0,2.639,1.189,2.639,2.651V24.963z"/>
	</g>
</g>
</svg>
