<?xml version="1.0" encoding="iso-8859-1"?>
<!-- Generator: Adobe Illustrator 19.2.1, SVG Export Plug-In . SVG Version: 6.00 Build 0)  -->
<svg version="1.1" id="Layer_1" xmlns="http://www.w3.org/2000/svg" xmlns:xlink="http://www.w3.org/1999/xlink" x="0px" y="0px"
	 viewBox="0 0 47.029 40.013" style="enable-background:new 0 0 47.029 40.013;" xml:space="preserve">
<path style="fill:#1C1C1B;" d="M5.901,8.703c-3.401,0.271-6.194,3.248-5.876,6.745c0.273,3.002,2.929,5.465,6.037,5.135
	c2.606-0.276,4.744-2.609,4.398-5.325c-0.281-2.206-2.298-4.019-4.627-3.649c-1.808,0.288-3.304,1.996-2.891,3.939
	c0.149,0.704,0.554,1.315,1.13,1.729c0.576,0.414,1.379,0.618,2.162,0.369c0.512-0.163,0.922-0.49,1.199-0.96
	c0.277-0.47,0.367-1.203-0.003-1.785c-0.299-0.469-0.573-0.562-1.004-0.635c-0.215-0.036-0.516-0.049-0.836,0.159
	c-0.32,0.208-0.49,0.639-0.49,0.943c-0.003,0.232,0.087,0.456,0.25,0.622c-0.085-0.024-0.17-0.059-0.26-0.124
	c-0.21-0.151-0.39-0.425-0.444-0.679c-0.184-0.869,0.562-1.717,1.462-1.86c1.279-0.203,2.462,0.861,2.627,2.15
	c0.214,1.683-1.174,3.197-2.855,3.375c-2.085,0.221-3.931-1.491-4.119-3.563c-0.226-2.482,1.813-4.657,4.28-4.853
	c0.022-0.002,0.044-0.003,0.066-0.004h34.82c0.022,0.002,0.044,0.003,0.066,0.004c2.467,0.196,4.506,2.37,4.28,4.853
	c-0.189,2.072-2.034,3.784-4.119,3.563c-1.681-0.178-3.07-1.692-2.855-3.374c0.164-1.289,1.347-2.354,2.627-2.15
	c0.899,0.143,1.646,0.991,1.461,1.86c-0.054,0.254-0.235,0.528-0.444,0.679c-0.09,0.065-0.174,0.099-0.259,0.123
	c0.163-0.165,0.253-0.389,0.25-0.622c0-0.305-0.17-0.735-0.49-0.943c-0.32-0.208-0.621-0.195-0.837-0.159
	c-0.431,0.072-0.705,0.165-1.004,0.635c-0.371,0.582-0.28,1.315-0.003,1.785c0.277,0.47,0.686,0.797,1.199,0.96
	c0.782,0.249,1.585,0.046,2.161-0.369s0.981-1.025,1.13-1.729c0.413-1.943-1.083-3.651-2.891-3.939
	c-2.329-0.371-4.346,1.443-4.627,3.649c-0.346,2.716,1.793,5.048,4.399,5.324c3.108,0.329,5.764-2.133,6.037-5.136
	c0.318-3.497-2.474-6.474-5.876-6.745c-0.071-0.011-0.136-0.006-0.204-0.008H6.105C6.037,8.691,5.965,8.699,5.901,8.703L5.901,8.703
	z M2.622,0C2.142,0,1.752,0.39,1.752,0.87v1.74c0,0.231,0.092,0.452,0.255,0.615l3.482,3.479c0.163,0.163,0.385,0.255,0.615,0.255
	h34.82c0.231,0,0.452-0.092,0.615-0.255l3.482-3.479c0.163-0.163,0.255-0.384,0.255-0.615V0.87c0-0.48-0.39-0.87-0.871-0.87H2.622z
	 M3.493,1.74h40.043v0.51l-2.972,2.97H6.465l-2.972-2.97V1.74z M13.068,13.917c-0.481,0-0.87,0.389-0.87,0.87v24.356
	c0,0.48,0.39,0.87,0.871,0.87c0.172,0,0.34-0.051,0.483-0.146l4.952-3.299c0.238-0.158,0.383-0.423,0.388-0.709l0.271-15.838
	c0-0.005,0-0.01,0-0.015c0-0.571,1.751-0.587,1.741-0.016c0,0.005,0,0.011,0,0.016v13.917c0,0.48,0.39,0.87,0.871,0.87
	c0.172,0,0.34-0.051,0.483-0.146l5.223-3.479c0.242-0.161,0.388-0.433,0.388-0.724V20.007c0-0.581,1.741-0.581,1.741,0v8.698
	c0,0.48,0.39,0.87,0.871,0.87c0.135,0,0.268-0.032,0.389-0.092l3.482-1.74c0.295-0.148,0.481-0.449,0.481-0.778V14.787
	c0-0.481-0.39-0.87-0.87-0.87H13.068L13.068,13.917L13.068,13.917z M13.939,15.657H33.09v10.77l-1.741,0.87v-7.291
	c0-2.9-5.223-2.9-5.223,0v9.972l-3.482,2.32V20.007v0.015c0.052-2.91-5.223-2.925-5.223-0.015v-0.015l-0.263,15.382l-3.219,2.144
	L13.939,15.657L13.939,15.657z"/>
</svg>
