<?xml version="1.0" encoding="iso-8859-1"?>
<!-- Generator: Adobe Illustrator 19.2.1, SVG Export Plug-In . SVG Version: 6.00 Build 0)  -->
<svg version="1.1" id="Layer_1" xmlns="http://www.w3.org/2000/svg" xmlns:xlink="http://www.w3.org/1999/xlink" x="0px" y="0px"
	 viewBox="0 0 25.653 40.006" style="enable-background:new 0 0 25.653 40.006;" xml:space="preserve">
<g>
	<g>
		<path style="fill:#1B1B1A;" d="M21.951,0c-2.042,0-3.703,1.638-3.703,3.652c0,0.503,0.104,0.982,0.291,1.418
			c-0.088-0.012-0.175-0.026-0.267-0.026H9.159C8.477,4.017,7.339,3.391,6.083,3.391c-2.042,0-3.703,1.638-3.703,3.652
			c0,2.014,1.661,3.652,3.703,3.652c1.271,0,2.451-0.662,3.123-1.714l3.983-0.109c-3.386,3-3.446,3.069-3.481,3.108
			c-0.319,0.366-0.496,0.828-0.496,1.303c0,0.43,0.145,0.851,0.415,1.203l-6.734,6.682c-0.552,0.375-0.879,0.984-0.879,1.645
			c0,1.102,0.91,2,2.028,2c0.529,0,1.03-0.202,1.412-0.567c0.013-0.012,0.025-0.024,0.035-0.033l7.177-7.094
			c0.933,0.79,1.836,1.551,2.257,1.907v4.245c0,1.103,0.91,2,2.028,2c1.118,0,2.028-0.897,2.028-2v-4.956
			c0-0.447-0.282-0.984-0.368-1.138c-0.034-0.06-0.076-0.114-0.126-0.161l-3.617-3.471l4.819-4.775
			c0.618-0.428,0.615-1.155,0.614-1.642V7.044c0-0.051-0.012-0.099-0.015-0.148c0.503,0.252,1.065,0.409,1.666,0.409
			c2.042,0,3.703-1.638,3.703-3.652C25.653,1.64,23.991,0,21.951,0z M6.082,9.305c-1.264,0-2.292-1.014-2.292-2.261
			c0-1.247,1.028-2.261,2.292-2.261c0.379,0,0.742,0.092,1.063,0.261H6.883c-1.118,0-2.028,0.897-2.028,2c0,1.102,0.91,2,2.047,2
			l0.251-0.007C6.828,9.209,6.461,9.305,6.082,9.305z M19.237,38.05c0.39,0,0.705-0.312,0.705-0.696V28.72
			c0-0.385-0.315-0.696-0.705-0.696H2.36c-0.39,0-0.705,0.311-0.705,0.696v8.635c0,0.384,0.315,0.696,0.705,0.696H19.237z
			 M20.893,38.615H0.705C0.315,38.615,0,38.927,0,39.31c0,0.384,0.315,0.696,0.705,0.696h20.188c0.39,0,0.705-0.312,0.705-0.696
			C21.598,38.927,21.283,38.615,20.893,38.615z M20.893,26.067H0.705C0.315,26.067,0,26.379,0,26.763
			c0,0.385,0.315,0.696,0.705,0.696h20.188c0.39,0,0.705-0.311,0.705-0.696C21.598,26.379,21.283,26.067,20.893,26.067z"/>
	</g>
</g>
</svg>
