<?xml version="1.0" encoding="iso-8859-1"?>
<!-- Generator: Adobe Illustrator 19.2.1, SVG Export Plug-In . SVG Version: 6.00 Build 0)  -->
<svg version="1.1" id="Layer_1" xmlns="http://www.w3.org/2000/svg" xmlns:xlink="http://www.w3.org/1999/xlink" x="0px" y="0px"
	 viewBox="0 0 49.232 40.001" style="enable-background:new 0 0 49.232 40.001;" xml:space="preserve">
<g>
	<g>
		<path style="fill:#1B1B1A;" d="M43.078,6.154V0H0v33.847c0,0,0,6.154,6.154,6.154h38.462c0,0,4.615-0.096,4.615-6.154V6.154
			H43.078z M6.154,36.924c-3.077,0-3.077-3.077-3.077-3.077V3.077h36.924v30.77c0,1.417,0.437,2.398,1.04,3.077H6.154z
			 M6.154,12.308h30.77V9.231H6.154V12.308z M23.078,30.77h10.77v-3.077h-10.77V30.77z M23.078,24.616h13.846v-3.077H23.078V24.616z
			 M23.078,18.462h13.846v-3.077H23.078V18.462z M6.154,30.77H20V15.385H6.154V30.77z"/>
	</g>
</g>
</svg>
