<?xml version="1.0" encoding="iso-8859-1"?>
<!-- Generator: Adobe Illustrator 19.2.1, SVG Export Plug-In . SVG Version: 6.00 Build 0)  -->
<svg version="1.1" id="Layer_1" xmlns="http://www.w3.org/2000/svg" xmlns:xlink="http://www.w3.org/1999/xlink" x="0px" y="0px"
	 viewBox="0 0 44.859 40.02" style="enable-background:new 0 0 44.859 40.02;" xml:space="preserve">
<g>
	<g>
		<path style="fill:#1B1B1A;" d="M43.146,5.866L15.672,0.047c-1.162-0.246-2.315,0.505-2.56,1.668L12.59,5.072l31.7,6.714
			l0.522-3.357C45.058,7.265,44.309,6.112,43.146,5.866z M31.593,12.497c-0.321-1.157-1.529-1.84-2.684-1.519l-5.216,1.449
			L11.398,9.823l-1.352,6.394l-8.449,2.347c-1.155,0.321-1.838,1.53-1.518,2.686L4.84,38.422c0.321,1.156,1.529,1.84,2.684,1.519
			l27.312-7.586c1.155-0.321,1.838-1.53,1.518-2.686l-0.817-2.948l3.063,0.648c1.162,0.247,2.314-0.504,2.56-1.667l1.938-9.166
			L32.065,14.2L31.593,12.497z M1.792,20.774c-0.058-0.211,0.07-0.439,0.28-0.497l7.558-2.099l17.834-4.953l1.919-0.533
			c0.035-0.009,0.07-0.014,0.104-0.014c0.154,0,0.338,0.101,0.392,0.295l0.225,0.812l0.706,2.546L2.723,24.132L1.792,20.774z
			 M34.747,21.225l0.675-3.195c0.101-0.479,0.575-0.787,1.053-0.686l3.192,0.677c0.478,0.102,0.787,0.575,0.686,1.054l-0.675,3.195
			c-0.101,0.479-0.575,0.787-1.053,0.686l-3.192-0.676C34.954,22.178,34.645,21.704,34.747,21.225z M34.641,30.144
			c0.036,0.13-0.002,0.238-0.04,0.305c-0.038,0.067-0.11,0.155-0.241,0.191L7.049,38.227c-0.034,0.009-0.07,0.014-0.104,0.014
			c-0.154,0-0.338-0.101-0.392-0.295L3.776,27.93l28.088-7.802l1.713,6.178L34.641,30.144z M11.462,30.83
			c-0.131-0.472-0.623-0.75-1.094-0.62l-3.19,0.887c-0.471,0.13-0.75,0.623-0.618,1.095l0.885,3.192
			c0.131,0.472,0.623,0.75,1.094,0.619l3.19-0.886c0.471-0.131,0.75-0.624,0.619-1.095L11.462,30.83z"/>
	</g>
</g>
</svg>
