<?xml version="1.0" encoding="iso-8859-1"?>
<!-- Generator: Adobe Illustrator 19.2.1, SVG Export Plug-In . SVG Version: 6.00 Build 0)  -->
<svg version="1.1" id="Layer_1" xmlns="http://www.w3.org/2000/svg" xmlns:xlink="http://www.w3.org/1999/xlink" x="0px" y="0px"
	 viewBox="0 0 39.999 39.999" style="enable-background:new 0 0 39.999 39.999;" xml:space="preserve">
<path style="fill:#1C1C1B;" d="M23.157,21.051L23.157,21.051c-1.164,0-2.105,0.943-2.105,2.106c0,1.162,0.944,2.105,2.105,2.105l0,0
	c1.162,0,2.105-0.943,2.105-2.105C25.262,21.994,24.321,21.051,23.157,21.051z M16.842,18.947c1.162,0,2.105-0.943,2.105-2.105
	c0-1.163-0.943-2.105-2.105-2.105c-1.162,0-2.105,0.942-2.105,2.105C14.736,18.004,15.679,18.947,16.842,18.947z M23.157,14.737
	L23.157,14.737c-1.164,0-2.105,0.942-2.105,2.105c0,1.162,0.941,2.105,2.105,2.105l0,0c1.162,0,2.105-0.943,2.105-2.105
	C25.262,15.679,24.321,14.737,23.157,14.737z M25.262,4.211H14.736v4.21h10.526V4.211z M29.473,18.947
	c1.162,0,2.105-0.943,2.105-2.105c0-1.163-0.941-2.105-2.105-2.105c-1.164,0-2.105,0.942-2.105,2.105
	C27.368,18.004,28.311,18.947,29.473,18.947z M29.473,25.262c1.162,0,2.105-0.943,2.105-2.105c0-1.163-0.941-2.105-2.105-2.105
	c-1.164,0-2.105,0.942-2.105,2.105C27.368,24.319,28.311,25.262,29.473,25.262z M16.842,25.262c1.162,0,2.105-0.943,2.105-2.105
	c0-1.163-0.942-2.106-2.105-2.106c-1.163,0-2.105,0.943-2.105,2.106C14.736,24.319,15.679,25.262,16.842,25.262z M10.526,31.578
	c1.162,0,2.105-0.944,2.105-2.105c0-1.164-0.943-2.105-2.105-2.105c-1.163,0-2.105,0.942-2.105,2.105
	C8.421,30.634,9.364,31.578,10.526,31.578z M35.788,4.211h-2.105v4.21h2.105v27.368H4.21V8.421h2.105v-4.21H4.21
	C1.885,4.211,0,6.095,0,8.421v27.367c0,2.326,1.885,4.212,4.21,4.212h31.578c2.325,0,4.21-1.885,4.21-4.212V8.421
	C39.999,6.095,38.113,4.211,35.788,4.211z M10.526,25.262c1.162,0,2.105-0.943,2.105-2.105c0-1.163-0.943-2.106-2.105-2.106
	c-1.163,0-2.105,0.943-2.105,2.106C8.421,24.319,9.364,25.262,10.526,25.262z M10.526,18.947c1.162,0,2.105-0.943,2.105-2.105
	c0-1.163-0.943-2.105-2.105-2.105c-1.163,0-2.105,0.942-2.105,2.105C8.421,18.004,9.364,18.947,10.526,18.947z M16.842,31.578
	c1.162,0,2.105-0.944,2.105-2.105c0-1.164-0.943-2.105-2.105-2.105c-1.162,0-2.105,0.942-2.105,2.105
	C14.736,30.634,15.679,31.578,16.842,31.578z M10.526,8.421c1.162,0,2.105-0.943,2.105-2.105v-4.21C12.631,0.942,11.689,0,10.526,0
	C9.364,0,8.421,0.942,8.421,2.105v4.21C8.421,7.478,9.364,8.421,10.526,8.421z M29.473,8.421c1.162,0,2.105-0.943,2.105-2.105v-4.21
	C31.578,0.942,30.634,0,29.473,0c-1.164,0-2.105,0.942-2.105,2.105v4.21C27.368,7.478,28.311,8.421,29.473,8.421z"/>
</svg>
