<?xml version="1.0" encoding="iso-8859-1"?>
<!-- Generator: Adobe Illustrator 19.2.1, SVG Export Plug-In . SVG Version: 6.00 Build 0)  -->
<svg version="1.1" id="Layer_1" xmlns="http://www.w3.org/2000/svg" xmlns:xlink="http://www.w3.org/1999/xlink" x="0px" y="0px"
	 viewBox="0 0 27.154 40" style="enable-background:new 0 0 27.154 40;" xml:space="preserve">
<g>
	<g>
		<path style="fill:#1B1B1A;" d="M13.577,0C6.091,0,0,6.09,0,13.575c0,3.008,1.771,7.582,5.574,14.396
			c2.595,4.649,5.178,8.576,5.287,8.741l1.867,2.829C12.916,39.828,13.235,40,13.577,40c0.342,0,0.661-0.172,0.849-0.457
			l1.867-2.829c0.108-0.164,2.672-4.057,5.287-8.742c3.803-6.814,5.574-11.388,5.574-14.396C27.154,6.09,21.063,0,13.577,0z
			 M19.804,26.98c-2.579,4.62-5.102,8.452-5.208,8.613l-1.018,1.542l-1.018-1.542c-0.107-0.162-2.65-4.029-5.209-8.613
			c-3.527-6.32-5.316-10.83-5.316-13.405c0-6.364,5.178-11.541,11.543-11.541c6.365,0,11.542,5.177,11.542,11.541
			C25.12,16.15,23.331,20.66,19.804,26.98z M13.577,5.964c-4.151,0-7.528,3.377-7.528,7.527c0,4.15,3.377,7.527,7.528,7.527
			c4.151,0,7.528-3.376,7.528-7.527C21.105,9.34,17.728,5.964,13.577,5.964z M13.577,18.983c-3.029,0-5.493-2.464-5.493-5.493
			c0-3.028,2.464-5.492,5.493-5.492s5.493,2.464,5.493,5.492C19.07,16.519,16.606,18.983,13.577,18.983z"/>
	</g>
</g>
</svg>
