<?xml version="1.0" encoding="iso-8859-1"?>
<!-- Generator: Adobe Illustrator 19.2.1, SVG Export Plug-In . SVG Version: 6.00 Build 0)  -->
<svg version="1.1" id="Layer_1" xmlns="http://www.w3.org/2000/svg" xmlns:xlink="http://www.w3.org/1999/xlink" x="0px" y="0px"
	 viewBox="0 0 39.987 39.987" style="enable-background:new 0 0 39.987 39.987;" xml:space="preserve">
<path style="fill:#1B1B1A;" d="M19.994,0C8.951,0,0,8.951,0,19.993c0,11.042,8.951,19.994,19.994,19.994
	c11.042,0,19.994-8.951,19.994-19.994C39.987,8.951,31.036,0,19.994,0z M19.994,36.238c-8.972,0-16.245-7.273-16.245-16.245
	c0-8.972,7.273-16.245,16.245-16.245s16.245,7.273,16.245,16.245C36.238,28.965,28.965,36.238,19.994,36.238z M17.494,9.997h4.998
	v4.998h-4.998V9.997z M24.992,29.99h-9.997v-2.499h2.499v-7.498h-2.499v-2.499h7.498v9.997h2.499V29.99z"/>
</svg>
