<?xml version="1.0" encoding="iso-8859-1"?>
<!-- Generator: Adobe Illustrator 19.2.1, SVG Export Plug-In . SVG Version: 6.00 Build 0)  -->
<svg version="1.1" id="Layer_1" xmlns="http://www.w3.org/2000/svg" xmlns:xlink="http://www.w3.org/1999/xlink" x="0px" y="0px"
	 viewBox="0 0 47.762 40.006" style="enable-background:new 0 0 47.762 40.006;" xml:space="preserve">
<path style="fill:#1B1B1A;" d="M28.822,6.866c2.208,1.378,3.757,3.71,4.04,6.417c0.9,0.419,1.9,0.66,2.959,0.66
	c3.87,0,7.005-3.121,7.005-6.972C42.826,3.121,39.691,0,35.821,0C31.989,0.001,28.88,3.066,28.822,6.866z M24.233,21.142
	c3.869,0,7.005-3.122,7.005-6.972c0-3.85-3.136-6.972-7.005-6.972c-3.868,0-7.006,3.122-7.006,6.972
	C17.227,18.021,20.365,21.142,24.233,21.142z M27.204,21.617H21.26c-4.945,0-8.969,4.005-8.969,8.928v7.235l0.018,0.114l0.501,0.156
	c4.72,1.468,8.82,1.957,12.195,1.957c6.591,0,10.412-1.871,10.648-1.99l0.468-0.236h0.05v-7.236
	C36.173,25.622,32.149,21.617,27.204,21.617z M38.793,14.419h-5.898c-0.064,2.349-1.071,4.464-2.664,5.985
	c4.396,1.301,7.611,5.359,7.611,10.151v2.23c5.823-0.213,9.18-1.855,9.401-1.966l0.468-0.236h0.05v-7.237
	C47.762,18.424,43.738,14.419,38.793,14.419z M11.942,13.944c1.371,0,2.646-0.398,3.725-1.076c0.344-2.229,1.544-4.177,3.259-5.503
	c0.007-0.131,0.02-0.26,0.02-0.392c0-3.851-3.136-6.972-7.004-6.972c-3.869,0-7.005,3.121-7.005,6.972
	C4.937,10.823,8.072,13.944,11.942,13.944z M18.233,20.404c-1.586-1.513-2.589-3.617-2.662-5.952
	c-0.219-0.016-0.435-0.033-0.658-0.033H8.969C4.023,14.419,0,18.424,0,23.346v7.236l0.018,0.112l0.501,0.157
	c3.786,1.177,7.165,1.719,10.1,1.889v-2.185C10.62,25.763,13.835,21.706,18.233,20.404z"/>
</svg>
